<svg id="visual" viewBox="0 0 1500 600" width="1500" height="600" xmlns="http://www.w3.org/2000/svg" xmlns:xlink="http://www.w3.org/1999/xlink" version="1.1"><rect x="0" y="0" width="1500" height="600" fill="#080707"></rect><path d="M0 408L35.7 402.7C71.3 397.3 142.7 386.7 214.2 384.3C285.7 382 357.3 388 428.8 389C500.3 390 571.7 386 643 395C714.3 404 785.7 426 857 434.8C928.3 443.7 999.7 439.3 1071.2 437.8C1142.7 436.3 1214.3 437.7 1285.8 433.2C1357.3 428.7 1428.7 418.3 1464.3 413.2L1500 408L1500 601L1464.3 601C1428.7 601 1357.3 601 1285.8 601C1214.3 601 1142.7 601 1071.2 601C999.7 601 928.3 601 857 601C785.7 601 714.3 601 643 601C571.7 601 500.3 601 428.8 601C357.3 601 285.7 601 214.2 601C142.7 601 71.3 601 35.7 601L0 601Z" fill="#4c3537"></path><path d="M0 440L35.7 443.8C71.3 447.7 142.7 455.3 214.2 453.8C285.7 452.3 357.3 441.7 428.8 438.3C500.3 435 571.7 439 643 436.5C714.3 434 785.7 425 857 421.3C928.3 417.7 999.7 419.3 1071.2 422.2C1142.7 425 1214.3 429 1285.8 425.7C1357.3 422.3 1428.7 411.7 1464.3 406.3L1500 401L1500 601L1464.3 601C1428.7 601 1357.3 601 1285.8 601C1214.3 601 1142.7 601 1071.2 601C999.7 601 928.3 601 857 601C785.7 601 714.3 601 643 601C571.7 601 500.3 601 428.8 601C357.3 601 285.7 601 214.2 601C142.7 601 71.3 601 35.7 601L0 601Z" fill="#6c3337"></path><path d="M0 492L35.7 493.8C71.3 495.7 142.7 499.3 214.2 491.8C285.7 484.3 357.3 465.7 428.8 463.7C500.3 461.7 571.7 476.3 643 481.3C714.3 486.3 785.7 481.7 857 475.3C928.3 469 999.7 461 1071.2 463.5C1142.7 466 1214.3 479 1285.8 480.7C1357.3 482.3 1428.7 472.7 1464.3 467.8L1500 463L1500 601L1464.3 601C1428.7 601 1357.3 601 1285.8 601C1214.3 601 1142.7 601 1071.2 601C999.7 601 928.3 601 857 601C785.7 601 714.3 601 643 601C571.7 601 500.3 601 428.8 601C357.3 601 285.7 601 214.2 601C142.7 601 71.3 601 35.7 601L0 601Z" fill="#8b2e32"></path><path d="M0 528L35.7 521.8C71.3 515.7 142.7 503.3 214.2 499.7C285.7 496 357.3 501 428.8 503.5C500.3 506 571.7 506 643 508.8C714.3 511.7 785.7 517.3 857 522C928.3 526.7 999.7 530.3 1071.2 529.7C1142.7 529 1214.3 524 1285.8 517.8C1357.3 511.7 1428.7 504.3 1464.3 500.7L1500 497L1500 601L1464.3 601C1428.7 601 1357.3 601 1285.8 601C1214.3 601 1142.7 601 1071.2 601C999.7 601 928.3 601 857 601C785.7 601 714.3 601 643 601C571.7 601 500.3 601 428.8 601C357.3 601 285.7 601 214.2 601C142.7 601 71.3 601 35.7 601L0 601Z" fill="#a82529"></path><path d="M0 561L35.7 563C71.3 565 142.7 569 214.2 566.8C285.7 564.7 357.3 556.3 428.8 548.2C500.3 540 571.7 532 643 534.2C714.3 536.3 785.7 548.7 857 556.3C928.3 564 999.7 567 1071.2 568.3C1142.7 569.7 1214.3 569.3 1285.8 567.3C1357.3 565.3 1428.7 561.7 1464.3 559.8L1500 558L1500 601L1464.3 601C1428.7 601 1357.3 601 1285.8 601C1214.3 601 1142.7 601 1071.2 601C999.7 601 928.3 601 857 601C785.7 601 714.3 601 643 601C571.7 601 500.3 601 428.8 601C357.3 601 285.7 601 214.2 601C142.7 601 71.3 601 35.7 601L0 601Z" fill="#c21919"></path></svg>